<?xml version="1.0" encoding="UTF-8"?>
<svg viewBox="0 0 429.07358 121.99306" xmlns="http://www.w3.org/2000/svg" xmlns:xlink="http://www.w3.org/1999/xlink">
 <defs>
  <linearGradient id="h">
   <stop stop-color="#4d4d4d" offset="0"/>
   <stop stop-color="#efefef" offset="1"/>
  </linearGradient>
  <linearGradient id="f">
   <stop stop-color="#eee" offset="0"/>
   <stop stop-color="#474747" offset=".5"/>
   <stop stop-color="#434343" offset=".75"/>
   <stop stop-color="#999" offset=".875"/>
   <stop stop-color="#3f3f3f" offset="1"/>
  </linearGradient>
  <linearGradient id="a">
   <stop stop-color="#fff" offset="0"/>
   <stop stop-color="#4d4d4d" offset="1"/>
  </linearGradient>
  <linearGradient id="b">
   <stop stop-color="#3f3f3f" offset="0"/>
   <stop stop-color="#929292" offset=".0625"/>
   <stop stop-color="#434343" offset=".125"/>
   <stop stop-color="#c3c3c3" offset=".25"/>
   <stop stop-color="#f6f6f6" offset=".5"/>
   <stop stop-color="#343434" offset=".75"/>
   <stop stop-color="#dfdfdf" offset=".875"/>
   <stop stop-color="#484848" offset="1"/>
  </linearGradient>
  <linearGradient id="g">
   <stop stop-color="#191919" offset="0"/>
   <stop stop-color="#d3d3d3" offset=".5"/>
   <stop stop-color="#343434" offset=".75"/>
   <stop stop-color="#9a9a9a" offset=".875"/>
   <stop stop-color="#1a1a1a" offset="1"/>
  </linearGradient>
  <linearGradient id="d">
   <stop stop-color="#fff" offset="0"/>
   <stop stop-color="#fff" offset=".34043"/>
   <stop stop-color="#d4d1bf" offset="1"/>
  </linearGradient>
  <linearGradient id="r" x1="147.07" x2="145.41" y1="862.31" y2="801.67" gradientTransform="matrix(1 0 0 -1 0 1072.4)" gradientUnits="userSpaceOnUse">
   <stop stop-color="#dcdbc5" offset="0"/>
   <stop stop-color="#fff" offset=".5"/>
   <stop stop-color="#bbb697" offset="1"/>
  </linearGradient>
  <linearGradient id="e" x1="256.26" x2="254.84" y1="280.63" y2="195.84" gradientUnits="userSpaceOnUse" xlink:href="#b" spreadMethod="reflect"/>
  <linearGradient id="c" x1="264.16" x2="265.01" y1="193" y2="280.63" gradientUnits="userSpaceOnUse" xlink:href="#b"/>
  <linearGradient id="bd" x1="255.62" x2="292.9" y1="256.35" y2="277.07" gradientUnits="userSpaceOnUse" xlink:href="#a"/>
  <linearGradient id="bc" x1="208.9" x2="284.32" y1="254.29" y2="294.19" gradientUnits="userSpaceOnUse" xlink:href="#a"/>
  <linearGradient id="bb" x1="272.14" x2="292.44" y1="183.95" y2="220.82" gradientUnits="userSpaceOnUse" xlink:href="#a"/>
  <linearGradient id="ba" x1="264.55" x2="284.09" y1="193.42" y2="222.56" gradientUnits="userSpaceOnUse" xlink:href="#a"/>
  <linearGradient id="az" x1="298.91" x2="275.65" y1="251.38" y2="206.84" gradientUnits="userSpaceOnUse" xlink:href="#h"/>
  <linearGradient id="ay" x1="306.9" x2="260.13" y1="232.49" y2="217.32" gradientUnits="userSpaceOnUse" xlink:href="#h"/>
  <linearGradient id="ax" x1="460.84" x2="483.32" y1="243.51" y2="257.25" gradientUnits="userSpaceOnUse" xlink:href="#f" spreadMethod="reflect"/>
  <linearGradient id="aw" x1="264.16" x2="265.01" y1="193" y2="280.63" gradientUnits="userSpaceOnUse" xlink:href="#f"/>
  <linearGradient id="av" x2="0" y1="235.2" y2="240.62" gradientUnits="userSpaceOnUse" xlink:href="#g"/>
  <linearGradient id="au" x2="0" y1="232.27" y2="242.82" gradientUnits="userSpaceOnUse" xlink:href="#g"/>
  <linearGradient id="at" x1="417.24" x2="411.89" y1="245.24" y2="245.17" gradientUnits="userSpaceOnUse" xlink:href="#b"/>
  <linearGradient id="as" x1="335.16" x2="338.45" y1="242.08" y2="241.83" gradientTransform="matrix(.8821 0 0 .99972 114.31 29.051)" gradientUnits="userSpaceOnUse" xlink:href="#a"/>
  <linearGradient id="ar" x1="410.81" x2="405.46" y1="244.72" y2="244.65" gradientUnits="userSpaceOnUse" xlink:href="#b"/>
  <linearGradient id="aq" x1="335.16" x2="338.45" y1="242.08" y2="241.83" gradientTransform="matrix(.8821 0 0 .99972 107.88 28.531)" gradientUnits="userSpaceOnUse" xlink:href="#a"/>
  <linearGradient id="ap" x1="403.67" x2="398.32" y1="244.14" y2="244.07" gradientUnits="userSpaceOnUse" xlink:href="#b"/>
  <linearGradient id="ao" x1="335.16" x2="338.45" y1="242.08" y2="241.83" gradientTransform="matrix(.8821 0 0 .99972 100.74 27.953)" gradientUnits="userSpaceOnUse" xlink:href="#a"/>
  <linearGradient id="an" x1="397.06" x2="391.71" y1="243.61" y2="243.54" gradientUnits="userSpaceOnUse" xlink:href="#b"/>
  <linearGradient id="am" x1="335.16" x2="338.45" y1="242.08" y2="241.83" gradientTransform="matrix(.8821 0 0 .99972 94.131 27.418)" gradientUnits="userSpaceOnUse" xlink:href="#a"/>
  <linearGradient id="al" x1="390.28" x2="384.92" y1="243.06" y2="242.99" gradientUnits="userSpaceOnUse" xlink:href="#b"/>
  <linearGradient id="ak" x1="335.16" x2="338.45" y1="242.08" y2="241.83" gradientTransform="matrix(.8821 0 0 .99972 87.346 26.869)" gradientUnits="userSpaceOnUse" xlink:href="#a"/>
  <linearGradient id="aj" x1="383.49" x2="378.14" y1="242.51" y2="242.44" gradientUnits="userSpaceOnUse" xlink:href="#b"/>
  <linearGradient id="ai" x1="335.16" x2="338.45" y1="242.08" y2="241.83" gradientTransform="matrix(.8821 0 0 .99972 80.561 26.32)" gradientUnits="userSpaceOnUse" xlink:href="#a"/>
  <linearGradient id="ah" x1="377.07" x2="371.71" y1="241.99" y2="241.92" gradientUnits="userSpaceOnUse" xlink:href="#b"/>
  <linearGradient id="ag" x1="335.16" x2="338.45" y1="242.08" y2="241.83" gradientTransform="matrix(.8821 0 0 .99972 74.133 25.8)" gradientUnits="userSpaceOnUse" xlink:href="#a"/>
  <linearGradient id="af" x1="370.1" x2="364.75" y1="241.42" y2="241.36" gradientUnits="userSpaceOnUse" xlink:href="#b"/>
  <linearGradient id="ae" x1="335.16" x2="338.45" y1="242.08" y2="241.83" gradientTransform="matrix(.8821 0 0 .99972 67.17 25.237)" gradientUnits="userSpaceOnUse" xlink:href="#a"/>
  <linearGradient id="ad" x1="363.32" x2="357.96" y1="240.88" y2="240.81" gradientUnits="userSpaceOnUse" xlink:href="#b"/>
  <linearGradient id="ac" x1="335.16" x2="338.45" y1="242.08" y2="241.83" gradientTransform="matrix(.8821 0 0 .99972 60.385 24.688)" gradientUnits="userSpaceOnUse" xlink:href="#a"/>
  <linearGradient id="ab" x1="356.53" x2="351.18" y1="240.33" y2="240.26" gradientUnits="userSpaceOnUse" xlink:href="#b"/>
  <linearGradient id="aa" x1="335.16" x2="338.45" y1="242.08" y2="241.83" gradientTransform="matrix(.8821 0 0 .99972 53.6 24.138)" gradientUnits="userSpaceOnUse" xlink:href="#a"/>
  <linearGradient id="z" x1="349.74" x2="344.38" y1="239.96" y2="239.89" gradientUnits="userSpaceOnUse" xlink:href="#b"/>
  <linearGradient id="y" x1="335.16" x2="338.45" y1="242.08" y2="241.83" gradientTransform="matrix(.8821 0 0 .99972 46.804 23.773)" gradientUnits="userSpaceOnUse" xlink:href="#a"/>
  <linearGradient id="x" x1="343.31" x2="337.95" y1="239.44" y2="239.37" gradientUnits="userSpaceOnUse" xlink:href="#b"/>
  <linearGradient id="w" x1="335.16" x2="338.45" y1="242.08" y2="241.83" gradientTransform="matrix(.8821 0 0 .99972 40.376 23.253)" gradientUnits="userSpaceOnUse" xlink:href="#a"/>
  <linearGradient id="v" x2="0" y1="190.73" y2="295.55" gradientUnits="userSpaceOnUse" xlink:href="#b" spreadMethod="reflect"/>
  <linearGradient id="u" x2="0" y1="225" y2="255.97" gradientUnits="userSpaceOnUse" xlink:href="#g"/>
  <linearGradient id="t" x1="99.098" x2="91.892" y1="224.63" y2="257.68" gradientUnits="userSpaceOnUse" xlink:href="#g"/>
  <linearGradient id="s" x2="0" y1="222.4" y2="259" gradientUnits="userSpaceOnUse" xlink:href="#g"/>
  <linearGradient id="q" x1="422.11" x2="422.62" y1="217.54" y2="181.03" gradientTransform="matrix(1.0012 0 0 .93147 -1.0724 34.736)" gradientUnits="userSpaceOnUse" xlink:href="#f" spreadMethod="reflect"/>
  <linearGradient id="p" x1="264.16" x2="265.01" y1="173" y2="260.63" gradientTransform="matrix(1.0012 0 0 .93147 -1.0724 34.736)" gradientUnits="userSpaceOnUse" xlink:href="#f"/>
  <radialGradient id="o" cx="151.32" cy="220.23" r="5.6296" gradientTransform="matrix(1.0208 -.0015555 .009073 5.9538 20.416 -1072.6)" gradientUnits="userSpaceOnUse" xlink:href="#d"/>
  <radialGradient id="n" cx="151.32" cy="220.23" r="5.6296" gradientTransform="matrix(1.0208 -.0015555 .009073 5.9538 7.4512 -1072.6)" gradientUnits="userSpaceOnUse" xlink:href="#d"/>
  <radialGradient id="m" cx="445.58" cy="217.41" r="4.4712" gradientTransform="matrix(7.3406e-7 2.6752 -1.0885 3.0447e-7 684.05 -959.13)" gradientUnits="userSpaceOnUse" xlink:href="#d"/>
  <radialGradient id="l" cx="64.382" cy="217" r="11.93" gradientTransform="matrix(2.7603 -.086573 .055107 1.757 -121.42 -140.01)" gradientUnits="userSpaceOnUse" xlink:href="#f"/>
  <radialGradient id="k" cx="125.33" cy="219.94" r="5.6296" gradientTransform="matrix(1.5965 -.013127 .036366 4.4229 -83.573 -734.45)" gradientUnits="userSpaceOnUse" xlink:href="#d"/>
  <radialGradient id="j" cx="141.65" cy="220.53" r="5.6296" gradientTransform="matrix(.86604 -.019272 .11101 4.9887 -5.8166 -857.57)" gradientUnits="userSpaceOnUse" xlink:href="#d"/>
  <radialGradient id="i" cx="151.32" cy="220.23" r="5.6296" gradientTransform="matrix(1.0208 -.0015555 .009073 5.9538 -5.4077 -1072.6)" gradientUnits="userSpaceOnUse" xlink:href="#d"/>
 </defs>
 <g transform="translate(-46.333 -167.65)" fill-rule="evenodd">
  <g transform="translate(28.108 191.87)" fill="#666" stroke="#666" stroke-width=".858">
   <path d="m313.69 87.095c3.8345-3.0214 0.89604-9.6735 1.8438-13.938-2.457-8.4987 3.8101-8.2732 10.5-7.625h71.938c-0.43946-19.103-0.06143-38.231-0.1875-57.344h-82.25c-0.99626-6.089 1.8606-13.283-1.125-18.812-1.9962-1.8091-0.0249 4.7563-0.71875 5.5312v92.188zm-24.031-90.438c-0.69146 3.8855 1.4179 17.011-1.1104 14.837-3.6161-4.4669-5.3547-12.445-12.671-9.9928-5.0085-1.1998-15.906 3.4891-13.625-5-0.08758-4.8976-7.2756-2.3543-10.438-3.0625-3.311 0.34659-10.34-1.6364-9.7812 3.5938 1.8282 7.145-7.0692 2.4662-11 4.375-2.3941 3.7806 0.07562 9.6802-0.8125 14.062-20.271-0.11082-40.542-0.18485-60.812-0.28125-4.6902 3.2879-9.1697 7.2582-15.312 5.7812-5.4257-3.7474-7.9489 1.0754-14.969 0-3.275-5.1614-8.9942 3.5087-14.153-0.84928-2.4492-3.1916-9.9755 5.0858-13.097-1.2757-6.5472 1.3682-15.025-1.7644-21 2.4375 0.30218 12.482-0.42831 25.499 0.5 37.656 2.9217 1.6217 6.3498 1.6634 9.6562 1.6875 0.79256-3.8745-1.061-18.968 2.9819-9.0618 1.916 5.8538 6.038 9.9418 11.987 7.3431 6.9624 1.9008 7.7127 1.3085 14.875 0.03125 5.4504 3.9696 7.1583-0.55272 13.969 0.03125 4.455 4.9941 6.9858-1.644 13.281 0.03125 6.0168 0.12342 9.6058 8.2296 16.281 6.1651 18.604-0.08865 37.208-0.15588 55.813-0.25884 0.4332 3.273-2.1385 11.031 4 9.5312 5.6726-0.8637 9.4649-0.0268 7.875 6.4688 1.6468 3.4873 7.2791 0.52106 10.281 1.5144 3.187-0.62152 10.924 2.2605 9.8751-3.5144-1.3028-7.6362 10.15-2.5164 15-4 7.1338 1.7214 8.3528-7.6176 12.406-11.656v22.531c6.1529 0.05915 14.181 1.9939 11.281-7v-88.156c-5.7122 1.0232-13.846-3.5276-11.281 6.0312zm-226.44 32.125c-5.7831 1.726-12.471 0.20866-18.594 0.71875-2.1944-3.7953-8.1637-0.76911-11.469 0.125-5.7185 0.23796-4.2564 5.4839-4.25 9.6562 0.94514 3.7561-2.5961 10.758 3.25 11.094 3.7421 0.95526 7.5327 1.2518 11.406 1.25 3.8294-2.763 11.735-0.33877 17.094-1.1562 5.1098 2.7753 10.776 3.7432 16.969 3.0312 6.8286 1.089 1.5837-9.8955 3.2188-14-1.1361-4.7389 3.4873-15.237-5.0312-12.594-4.2693 0.4341-9.0942-1.3084-12.594 1.875zm58.844 32.625z" opacity=".1"/>
   <path d="m312.57 88.251c5.3508 0.18617 4.0536-7.8702 4.0938-11.094-0.73357-6.8586-0.7481-12.998 7.875-10.5 24.774-0.16331 50.204 0.32903 74.562-0.25-0.54935-19.713 0.17792-39.935-0.375-59.344h-82.062c-1.1441-5.9894 2.3536-13.833-1.875-18.844-4.1262-2.1403-1.48 6.1857-2.2188 8.5312v91.5zm-24.031-91.594c-0.41109 4.9254 1.7072 18.193-3.3321 7.8541-2.5147-7.1249-10.993-3.0957-16.762-4.1353-4.706 1.1554-5.5467-1.0977-5.1875-5.2188-1.846-5.0147-8.4454-1.9224-12.438-2.8438-3.5375 0.05762-9.4724-1.2666-9.9062 3.625 1.868 7.5185-7.3583 1.6525-10.938 4.9375-2.3244 3.9015-0.12065 9.1339-0.875 13.469-20.01-0.1208-40.021-0.18336-60.031-0.28125-4.6285 3.1168-8.9192 7.328-14.969 5.7812-3.0526 1.0716-3.0956-4.4443-6.625-2.1875-1.1884 3.3309-8.2148 3.3522-9.6562 0.375-1.2487-1.6685-4.6683-0.41126-4.7188 1.8125-3.2871-0.06475-7.1385 0.95108-8.6875-2.3125-3.7584-1.6445-3.5286 4.0492-7.3125 2.3125-2.6139 0.9742-3.5509-0.95816-4.9688-2.1875-3.6814 0.42496-6.1571 0.22969-10.531 0.21875-3.8994 0.28712-9.1353-0.24361-11.844 3.0938 0.27588 12.772-0.37962 26.021 0.46875 38.5 3.4344 2.3919 7.8968 2.2468 11.906 2.2812-0.11533-7.6753 0.13481-13.809 4.2702-3.5575 1.2806 3.3329 6.1 3.2195 8.6048 1.8388 3.2436-0.72411 5.5365 0.12961 6.9688 2.5 3.7631 1.9531 2.949-3.8864 6.375-2.4688 3.1873-0.8496 4.9896 0.45436 6.5312 2.4688 3.871 1.7093 3.374-4.2256 7.3125-2.4375 3.0271-1.2402 4.0885 1.159 5.6562 2.4375 3.8039 1.6881 3.3686-4.1746 7.2812-2.4062 7.8195-1.7907 11.882 8.7583 19.937 6.1608 18.01-0.08926 36.021-0.14224 54.031-0.25452-0.21313 3.282-1.2614 10.244 4.125 9.5312 5.0791-0.55646 9.2096-0.55054 7.8125 5.5625 1.7483 4.7781 8.63 1.3777 12.344 2.4123 3.1576-0.18316 10.185 1.618 10-3.631-1.2147-7.4647 10.111-2.3892 14.875-3.875 6.128 3.9859 9.6725-13.558 10.281-6.125 0.73814 5.2619-1.4257 13.426 1 17 5.4807-0.6964 15.376 3.0216 12.531-6v-91.406c-4.9625 1.2146-15.92-3.5661-13.531 5v2.1562zm118.88 70.594c1.6068-4.6223 0.22719-12.231 0.6875-18v-42.312c-1.6068 4.6223-0.22719 12.231-0.6875 18v42.312zm-344.75-39.406c-5.4746 1.3402-11.627 0.10831-17.344 0.53125-2.2386-3.5394-8.1545-1.1184-11.5-0.15625-3.1401 1.204-7.9615 1.6522-6.0312 6.4062 0.34143 5.0106-0.63733 10.819 0.40625 15.406 5.0167 2.4234 10.766 2.7234 16.25 2.6875 3.6084-2.6776 11.137-0.33388 16.219-1.125 4.6443 2.826 9.8751 3.7633 15.625 3.0312 8.6893 2.7934 4.9567-6.835 5.6875-12-0.76001-5.24 1.5285-13.528-1.1562-16.844-5.944 0.75411-13.156-1.8616-18.156 2.0625zm353.81 19.062c2.8229-5.0328 0.61155-11.645 0.96875-17.125-2.3464-5.8906 0.00284 11.518-0.96875 7.4375v9.6875zm20.25-7.9062c-0.4143 7.5123 1.9407 18.078-6.3125 22.344-4.1909 2.3891-9.1627 2.6118-13.875 2.6875 0.80509 2.5936 6.2944 0.38815 9.0312 0.40625 6.9865-0.35117 12.56-6.2632 12.219-13.281 0.15332-5.9963 0.01549-12.001 0.0625-18-2.4991-0.85888-0.46694 4.7169-1.125 5.8438z" opacity=".1"/>
   <path d="m311.47 89.345c6.3163 1.3423 7.0752-6.958 6.2812-11.188-0.48937-6.3852-1.1474-12.939 7.2812-10.406h75.125c-0.32755-20.582-0.07933-41.189-0.15625-61.781h-82.25c-1.1476-5.9491 2.5858-14.254-2.5938-18.844-2.7429-1.5306-4.9301 0.14847-3.6875 3.5312v98.688zm-24.031-92.688c0.64268 9.7051 0.05116 9.1871-5.375 2.625-5.5232-0.67477-13.741 1.3457-17.594-1 0.91055-3.862-2.1981-8.2158-6.4684-6.9344-5.2698 0.45116-11.45-1.3336-16.313 0.77816-1.7442 1.7814-2.32 4.1825-1.875 6.6875-3.8062 0.09754-11.526-1.6744-11.812 4.2188 0.79969 6.7843 0.63136 12.625-7.7812 10.165l-51.5-0.22788c-4.8354 3.7381-9.7638 7.154-16.156 5.7812-0.76761-3.4002-6.3602-3.4004-7.125 0-3.3008 0.55062-5.7723-0.03056-7.6562-2.2188-3.0219-1.5166-4.5629 1.2114-6.3125 2.2188-3.2185 0.92714-4.7306-0.68284-6.7188-2.2812-4.3062-1.9007-4.6939 3.9038-8.7812 2.2812-2.11-0.01785-3.1596-3.7729-6.0625-1.75-2.2003-2.3095-5.0806 1.2304-8.2188-0.21875-4.3713 0.30923-10.426-0.31493-13.031 3.9375 0.34565 13.062-0.51368 26.683 0.5625 39.406 3.9224 2.9904 9.2106 2.7189 13.938 2.6875-0.6905-9.4929 1.6122-6.4324 4.7188 0.34375-0.54784-4.0448 4.4068 0.81607 6.1875-2.0312 3.235-0.53187 5.5802-0.04857 7.2188 2.3438 2.1247 0.73999 4.9814 0.37366 5.4375-2.3125 3.2895-0.48602 5.7406-0.08407 7.4375 2.3438 2.3353 0.66083 4.8588 0.31498 5.5-2.3125 3.2609-0.50601 5.7107-0.05674 7.4688 2.3125 2.2441 0.65485 4.8376 0.33849 5.4688-2.2812 6.4777-1.5262 11.193 2.7558 16.156 6.1875 19.75-0.07927 39.5-0.19124 59.25-0.25-0.93092 3.7656-0.09697 10.339 5.2188 9.5 4.7683-0.74918 7.5316-0.09239 6.7812 4.9688 2.1408 5.5105 9.7936 2.0105 14.125 3 3.644 0.52441 10.762 0.80317 10.344-4.7188 0.2937-5.8938 11.021-1.3538 15.781-2.7812 6.5146-1.5735 7.9704-10.706 7.1875 1.4375-1.126 6.9385-0.06698 11.692 8 9.4375 8.9571 2.7176 8.2238-4.2554 7.7188-11v-88.594c-4.7504 1.4892-15.77-3.2909-15.719 3v5.25zm118.88 71.688c6.055-0.23662 1.4262-11.157 2.875-16v-46.5c-6.055 0.23662-1.4262 11.157-2.875 16v46.5zm-344.25-41.469c-5.0978 0.25667-12.402 1.5463-16.625-0.65625-6.3987-2.0697-12.892 1.1789-18.75 3.7188 0.4192 6.7951-0.78308 14.507 0.5 20.812 5.5815 2.8842 11.984 3.2496 18.156 2.9688 3.6726-2.5347 11.131-0.25645 16.188-1.0312 5.7523 5.5675 14.343 2.0564 21.531 3.0312v-31.031c-6.8222 0.9042-15.224-2.1642-21 2.1875zm353.31 22.156c6.1712-3.1789 2.3059-12.096 3.375-17.531 0.23942-2.3092-1.4013-4.5121-3.375-5.5312v23.062zm20.25-16.75c-0.89235 8.084 1.7606 17.079-1.9375 24.625-4.0521 5.768-11.854 6.0092-18.25 6.0312-1.7492 5.9668 5.8595 2.441 9.0625 2.8125 7.4328-0.26853 14.54-5.9053 14.312-13.781 0.30596-6.6248 0.03175-13.273 0.125-19.906-0.83415 0.28543-2.91-0.47205-3.3125 0.21875z" opacity=".1"/>
   <path d="m310.35 90.47c5.7256 1.7809 9.5293-4.2817 8.5312-9.3125 0.75324-5.2259-3.0101-14.968 5.6562-12.281 2.7778 4.1821 3.9405-2.7867 8.4957 0.97674-1.2278 1.737 6.8538-4.5061 7.1293 1.1795 1.356-6.2824 7.9764 1.977 8.125-2.1562 6.9165 0.68177 3.7797 1.2877 10.25 0 2.2505 3.8321 4.6273-3.0282 8.4062 1.25-0.71405-2.6787 8.6477 0.55909 7.2787-0.83187 5.679-1.9364 5.7169 2.607 9.315-0.41813 5.323 2.2744 3.3772-0.45509 10.469 0-1.2567 2.8497 7.2364-2.0517 7.0625 1.375 0.27112-21.76-0.06833-43.612 0.0625-65.406-5.0485-2.2089-5.0721 1.5105-10.399-0.97014 0.65184 2.338-9.1884-0.97226-7.695 0.97014-7.0775-0.18091-4.8984-1.2316-11.062 0-1.7971-3.1804-5.4099 2.817-8.6875-1.25-0.96311 3.2147-7.5175-1.2872-8.3438 1.25-6.565-1.0217-4.2232-0.40901-11.219 0 0.7625-2.6369-7.3803 2.3419-7.6875-1.4062-3.2313 4.0572-6.8007-1.4521-9.4062 1.4062-3.7272-2.8198-7.4436 3.376-7.75-3.6562-0.12273-4.8756 1.711-14.312-5.125-15.656-6.8901-1.088-1.8936 9.7105-3.4062 14v90.938zm-24.031-93.812c1.8416 10.326-3.9784-2.3082-10.656 1.5-3.7819-0.83093-11.138 2.4333-10.219-3.3438-1.3958-6.2764-8.844-4.4751-13.594-4.7188-5.0101-0.58952-12.996-0.76858-13.156 5.9375-0.5475 3.903-7.709-0.28753-10.344 3.2812-3.4395 3.4595 0.38986 10.507-2.4686 12.794-19.156-0.10646-38.313-0.17175-57.469-0.26239-4.453 3.1438-10.819 8.6018-15.875 4.7188-1.875-2.2665-6.6366-1.9675-7.6875 1.0625-3.4596 1.1585-4.5977-1.1598-7.0938-2.2812-2.8676-1.1147-5.1416 0.95475-6.8125 2.2812-3.752 0.9209-5.6705-4.2857-9.9688-2.125-2.1246 2.0752-5.3083 3.3927-7.3125 0.375-2.2053-0.66092-4.1332-0.81599-6.4688-0.71875-5.6433 1.6596-15.869-1.5121-19.656 5.3438 0.30647 13.306-0.43383 27.048 0.5 40.094 4.4582 3.7853 10.71 3.4146 16.219 3.3125-0.11176-8.6078 0.52021-0.00907 4.5 0.34375 0.1735-2.3792 2.5536-0.53442 4.4688-1.2188 3.0993-2.145 5.5814-0.23875 7.9375 1.5938 2.9967 1.3178 5.5069-0.8786 7.1875-2.3438 3.8776-1.265 4.8937 4.2625 9.25 2.4688 2.4599-0.64631 3.004-3.7993 6.25-2.4375 1.7244 1.545 4.3893 3.6495 7.4062 2.2188 2.6697-2.951 7.6405-3.2757 10.864-0.23194 6.1864 6.5989 15.29 3.5588 23.292 4.1571 13.823-0.0767 27.646-0.08984 41.469-0.20644-1.2456 4.345 1.0958 10.317 6.3438 9.5312 4.8699-1.1777 5.5577 0.77853 5.9375 4.75 2.9234 5.833 10.955 2.1934 15.969 3.2188 4.2183 1.0839 10.958-0.3302 10.469-5.8438 2.2778-3.8264 11.624-0.58463 16.656-1.6562 6.2116-7.1129 3.4648 1.4259 4.0625 7.5-0.7818 6.9068 10.432 1.8177 15 3.375 6.1943-0.12857 1.5126-11.133 2.9688-16v-85.844c-5.6668 0.65616-13.965-1.3195-17.969 1v8.375zm118.88 72.812c8.6352 2.5936 3.9783-8.1051 5.125-13v-51.75c-8.6352-2.5936-3.9783 8.1051-5.125 13v51.75zm-322.72-45.906c-7.3251 0.66811-15.545-1.9334-21.812 2.5938-5.3311-0.56729-11.38 1.3309-15.812-1.3125-6.7861-1.4699-13.378 1.6443-19.281 4.4688 0.41485 7.2405-0.79066 15.254 0.53125 22.062 5.9201 3.3692 13.425 3.9625 20.125 3.2812 3.9724-1.4421 11.563-1.4338 16.197 0.00705 5.5517 4.3502 13.428 1.263 20.053 2.1804 2.4381 6.5134 1.6566-8.4966 1.7188-11.75v-23.031c-1.5397-0.05817-2.08-0.34592-1.7188 1.5zm331.78 26.969c6.7404-1.0824 6.0258-9.8212 5.625-14.906 1.0583-4.55-0.72463-10.121-5.625-11.344v26.25zm20.25-18.25c-0.85518 7.8588 1.666 16.586-1.7188 23.969-4.0767 5.7624-12.076 5.5153-18.469 5.5625-1.7472 5.6774 1.6276 6.4317 6.25 5.4688 7.8184-0.04033 17.621-3.3023 18.906-12.125 1.3121-7.906 0.25289-16.177 0.59375-24.219-1.4428 0.6265-6.4251-1.4149-5.5625 1.3438zm-8.1875 5.7812c4.6385 0.61257-0.99907-4.4948 0 0z" opacity=".1"/>
   <path d="m309.26 91.564c3.7773 0.56552 8.2681-0.04334 9.8125-4.0312 1.9316-5.5006 0.436-11.755 0.90625-17.562 2.3537 0.34233 6.1824-1.3086 6.0625 2.2188 0.15878 0.74607 1.1256 3.0656 1.5312 1.25 0.3359-2.4798 0.75943-4.3808 3.9062-3.4688 1.1526 0.52025 0.79567 3.7238 2.1875 4.1875 1.2397-1.6638-0.0727-5.2054 3.1354-4.1875 3.033-1.1098 1.902 3.1334 3.6146 4.0938 1.2921-1.6548 0.03617-5.1145 3.1979-4.0938 2.9964-1.1036 1.8638 3.1434 3.6146 4.0938 1.2095-1.6519 0.02854-5.1428 3.1667-4.0938 3.033-1.1098 1.902 3.1334 3.6146 4.0938 1.2921-1.6548 0.03617-5.1145 3.1979-4.0938 3.1692-1.204 2.0477 3.0665 3.7708 4.0938 1.2921-1.6548 0.03617-5.1145 3.1979-4.0938 2.689-0.84029 1.5592 3.2762 3.2396 4.0938 1.2921-1.6548 0.03617-5.1145 3.1979-4.0938 2.9964-1.1036 1.8638 3.1434 3.6146 4.0938 1.2095-1.6519 0.02854-5.1428 3.1667-4.0938 3.033-1.1098 1.902 3.1334 3.6146 4.0938 1.2921-1.6548 0.03617-5.1145 3.1979-4.0938 2.877-1.0934 1.731 3.4275 3.4583 4.0312 1.1622-1.6547 0.02631-5.0736 3.1354-4.0312 3.3016-1.2211 2.2818 2.7934 3.9583 4.125 1.2702-1.6297 0.02977-5.1844 3.1979-4.125 2.7168-0.89937 1.5974 3.3209 3.2708 4.0625 2.412-6.7607 0.41377-14.23 1-21.271v-49.01c-3.0622 0.71229-4.4329-0.35066-4.9688-3.1875-1.018-1.9421-1.3946 1.9996-1.5 2.7188-1.7948 1.3385-4.734 0.57891-4.7188-2.2188-0.19592-1.4062-1.2729-1.3511-1.3125 0.03125 0.87324 3.3614-4.8231 3.7998-5.3438 1.375-0.18967-0.65754-1.0507-3.7099-1.6562-1.9062 0.74883 3.3551-4.1008 4.697-4.9688 1.9062-0.18597-0.64768-1.0056-3.7277-1.625-1.9062 0.20672 3.1678-2.6919 4.1376-4.9375 2.75-0.36694-0.80335-0.64874-3.6013-1.6562-3.2188-0.91496 1.6568-0.11184 4.6538-3.0104 3.6562-3.0198 1.1626-1.9896-2.8248-3.6458-3.8438-1.2047 1.6213-0.12004 4.8504-3.1667 3.8438-2.7151 1.125-1.6519-3.4178-3.3333-3.75-1.1024 1.6386-0.11489 4.7411-3.1042 3.75-3.127 1.2198-2.1497-2.7383-3.8021-3.8438-1.2047 1.6213-0.12004 4.8504-3.1667 3.8438-2.9698 1.214-2.0056-2.9812-3.6458-3.8125-1.1633 1.5782-0.09525 4.8615-3.1354 3.8125-3.0198 1.1626-1.9896-2.8248-3.6458-3.8438-1.2047 1.6213-0.12004 4.8504-3.1667 3.8438-2.9475 1.3365-2.0576-3.0233-3.6771-3.5938-0.7353 2.4076-0.87491 4.5804-4.184 3.5938-1.3936 0.15982-0.96133-3.6975-2.2847-3.5312-0.14288 1.662-2.013 5.594-2.5938 2.4132-0.55085-5.7162 1.8846-13.23-3.4375-17.257-2.1327-1.5194-4.8136-0.76657-7.2812-0.9375v107.12zm24.312-17.312c-0.10364 0.03251 0.04293 0.05766 0 0zm-6.4375 0c-0.10364 0.03251 0.04293 0.05766 0 0zm-41.906-77.594c0.92793 2.842-4.3218-1.0641-7.0799 0.40625h-11.451c0.51749-4.5073-3.5901-8.9187-8.1803-7.9219-5.6064 0.06887-11.576-0.7102-16.976 0.45314-2.2559 1.2602-4.1708 4.176-3.9375 7-3.9781-0.20557-9.6054-0.65201-11.281 3.9375-1.1979 3.2828-0.21432 6.9956-0.53125 10.469l-57.719-0.25c-3.1703 1.7386-5.9501 4.7392-9.3368 5.7812-2.2613-0.1477-4.939 0.7817-6.1007-1.5-2.5087-1.4965-7.0081-1.5272-8.4062 1.5-1.9466 0.21038-3.6056 0.23692-4.5625-1.5-2.4972-1.5185-7.0125-1.5168-8.4062 1.5-1.9114 0.23393-3.4872 0.15053-4.4375-1.5-2.5076-1.4944-7.0121-1.5402-8.4062 1.5-2.3825 0.78756-3.06-0.91014-4.7188-1.9062-1.7882-0.46079-3.28-0.07724-5-0.71875-2.2805-0.03633-3.6482 1.3098-6.1179 0.67543-5.5232 0.12746-13.121-0.26039-16.07 5.4496-0.10585 13.441 0.06279 27.1 0.0625 40.625 4.7297 5.0736 12.292 4.4357 18.719 4.3125-0.03281-3.6974 0.33182 0.76851 2.2188 0.34375 1.6188 0.52832 3.0694-0.467 3.323-1.1581 2.6711 0.81231 4.7208-1.7441 7.4895-0.81062 1.4052 3.3091 6.9378 3.5546 9.1562 0.96875 0.80145-1.7297 4.0888-1.3325 4.6875 0.46875 2.5131 1.951 7.3748 1.7522 8.7188-1.375 1.9912-0.26993 3.5117-0.10932 4.4375 1.5625 2.569 1.6244 7.0608 1.5784 8.5-1.5312 3.122-0.29537 6.1251-0.175 8.4147 2.2637 3.0493 1.9373 5.7951 4.8774 9.7242 3.9068l53.83-0.23299c-0.83101 4.1116 1.1894 9.0874 5.7812 9.5 1.7827 0.66617 6.6281-1.574 6.0312 1.5312-0.09483 4.8017 4.9448 7.3618 9.2188 6.4375 5.174-0.24754 10.614 0.58674 15.625-0.40625 2.9477-0.90735 4.6139-4.1487 4.25-7.0938h17.562c2.0063-3.3377 0.49871 4.8265 0.96875 6.5174-1.4892 4.9788 2.3037 4.6754 6.1111 4.3576h14.045v-104.03h-20.156v10.469zm21.375 84.594c2.9752-0.43562 0.56613-6.2556 1.3438-8.8889v-69.736c-2.9752 0.43562-0.56613 6.2556-1.3438 8.8889v69.736zm97.5-10.688c2.6957-0.66775 8.7053 1.9784 7.3125-2.7778v-64.16c-2.6957 0.66775-8.7053-1.9784-7.3125 2.7778v64.16zm-322.72-48.656c-1.7151 1.4377-6.2057 0.09982-8.8958 0.5625-3.7089 0.1405-7.7302-0.85149-10.693 1.9935-3.5442 1.4369-7.8529 0.17642-11.685 0.60027-2.6683 0.63061-4.3034-1.8604-7.1526-1.6262-6.4971-0.48315-12.875 2.2081-18.417 5.2824-0.08056 7.5124-0.1499 15.281 0.03125 22.75 5.645 4.4774 13.486 4.5422 20.469 4.5312 2.2056 0.09954 2.6278-1.7227 4.941-1.0938 3.7564 0.33114 7.9209-0.62786 11.454 0.40963 2.5515 2.6839 5.8501 2.9731 9.3485 2.6216h10.601c-1.5213 3.635 5.9933 3.1934 3.9062-0.52778v-36.441c-0.96555 0.47307-4.5882-1.0423-3.9062 0.9375zm331.78 29.875c5.494 0.0491 8.8436-5.6974 7.8125-10.795-0.55732-5.3072 1.8372-12.123-3-15.955-1.3577-1.1199-3.1035-1.9289-4.8125-2.0625v28.812zm20.25-19.469c-0.33944 7.291 0.74878 14.811-0.84375 21.906-2.663 6.2585-10.918 6.4859-16.938 6.5-4.4185-0.98346-1.6305 5.1908-2.4062 7.809 8.4854-0.09215 19.07 0.20934 24.844-7.2153 5.019-7.7973 2.442-17.564 3.0938-26.312 0.95099-4.3364-0.55644-6.2144-5-5.1563-2.5022-0.07264-3.2636-0.55306-2.75 2.4688zm-11.156 9.4688c3.7236 0.35209 0.9073-5.8358 1.7812-8.3333-2.3933-3.8703-1.7907 3.9971-1.7812 6.118v2.2153zm2.9688-2.625c4.4038 2.279 5.5231-5.293 0.94097-3.875-1.8976-0.46384-0.52548 2.7908-0.94097 3.875z" opacity=".1"/>
   <path d="m308.13-16.124v17.625c-3.4053-0.09935-0.81787-6.1914-1.625-8.8889-0.52773-2.3326 0.95952-5.5565-0.53125-7.4861-7.1332-0.00506-14.463-0.29362-21.531 0.125-0.93561 3.2735-0.0181 7.2025-0.34375 10.688-5.3138-0.21744-11.491 0.42896-16.281-0.3125-0.3244-4.534-4.5491-8.4962-9.2741-7.6092-5.8185 0.10279-11.91-0.81066-17.57 0.57793-2.3655 1.4041-4.1903 4.0648-4.5 6.875-4.3537-0.61165-9.8505 0.30223-11.344 4.9375-0.96188 3.0362-0.25209 6.324-0.46875 9.4688-19.012-0.01985-38.094-0.2953-57.062-0.15625-4.0605 2.1236-7.3692 6.7224-12.389 5.6875-1.565-0.27172-2.6434-2.5109-4.6736-2.3125-2.4554-0.2243-5.5749-0.1198-6.9062 2.3125-2.6502 0.82482-3.6123-2.7257-6.3438-2.3125-2.3818-0.24778-5.3498-0.01372-6.625 2.3125-2.5104 0.78849-3.3854-2.534-5.9375-2.3125-2.481-0.23219-5.5722-0.12291-6.9062 2.3125-2.1707 0.43444-3.1472-2.6227-5.5625-2.1875-2.1431 0.22014-4.6987-1.3038-6.7188 0.3125-6.4573-0.01096-14.706-0.83963-19.25 4.5938-0.69859 2.8006-3.8058 1.4152-6.0312 1.7188-0.07841 3.1994-5.8393 0.71628-8.3333 1.5-3.295 0.38906-7.0738-1.1051-9.4798 1.4535-3.7981 2.3372-8.7194 0.60952-13.017 1.1402-2.2683 0.0263-4.1808-1.9504-6.6701-1.6562-6.5326-0.40743-12.955 2.361-18.562 5.2812-2.1018 1.804-0.19807 5.4071-0.84375 7.8229 0.2004 5.5133-0.37926 11.26 0.25 16.646 5.0345 4.6693 12.834 4.8867 19.462 5.1562 2.3349 0.39172 4.233-0.80976 6.1806-1.1562 3.8593 0.22611 7.9957-0.442 11.691 0.31411 2.598 2.3469 4.854 3.2902 8.4237 2.7171h10.899c-1.2798 4.174 4.0682 1.1155 5.8125 2.6875 5.2778 5.3821 13.594 4.2193 20.438 4.5 1.7391 0.64929 3.9169 0.10019 5.1875-0.78125 2.2994 0.33441 5.2424-2.6754 6.7812 0.0625 2.7554 2.3907 8.1756 2.2306 10.219-1.0312 2.3868-0.72798 3.0695 2.4906 5.4375 2.4375 2.636 0.29333 6.0102 0.21439 7.375-2.4062 2.5265-0.76587 3.3822 2.6717 5.9688 2.4375 2.5011 0.24433 5.6469 0.09383 6.9375-2.4062 5.0336-1.104 8.3641 3.3932 12.401 5.5668 3.3143 1.4856 7.4697 0.14921 11.099 0.5767l46.75-0.20595c-0.97972 5.1302 3.3898 10.265 8.6736 9.5 3.1933-0.94689 3.1852 0.97932 3.7326 3.375 1.7471 4.5881 7.2312 5.0557 11.5 4.625 5.1344-0.57269 10.833 1.1648 15.594-1.0938 2.2022-1.3246 3.6357-3.7982 3.6562-6.4375h16.281c0.31313 3.5082-0.56207 7.3784 0.3125 10.719 7.1889 0.26054 14.593 0.27084 21.781 0 0.86265-2.7072 0.00865-5.9379 0.3125-8.8125 3.4053 0.09934 0.81787 6.1914 1.625 8.8889-0.41899 2.931 4.2974 0.83087 6.1875 1.3924 5.7668-0.99457 7.457-7.7841 6.7812-12.833 0.82775-2.6375-1.8289-8.7595 1.6667-8.7292 3.2029-1.3088 1.7574 5.1395 4.9271 4.125 1.8719-1.1731 0.33081-5.0758 3.3438-4.125 0.34638 1.462 1.2007 5.3689 3.375 3.9062 1.4444-1.5738 0.27437-5.0173 3.4688-3.9062 0.23886 1.4693 1.4461 5.4763 3.4688 3.5938 1.15-1.6073 0.32745-4.6616 3.3125-3.5938 0.26867 1.4889 1.436 5.4192 3.4688 3.625 1.1732-1.6021 0.37382-4.6682 3.3438-3.625 0.23886 1.4693 1.4461 5.4763 3.4688 3.5938 1.1265-1.7222 0.40824-4.7057 3.5-3.5938 0.23886 1.4693 1.4461 5.4763 3.4688 3.5938 1.1774-1.4137 0.21936-4.534 2.9688-3.5938 0.23886 1.4693 1.4461 5.4763 3.4688 3.5938 1.15-1.6073 0.32745-4.6616 3.3125-3.5938 0.26867 1.4889 1.436 5.4192 3.4688 3.625 1.1732-1.6021 0.37382-4.6682 3.3438-3.625 0.23886 1.4693 1.4461 5.4763 3.4688 3.5938 1.1639-1.5177 0.2737-4.6092 3.1562-3.5938 0.16798 1.6216 1.69 5.6663 3.5938 3.375 0.93222-1.6654 0.37554-4.3366 3.1597-3.375 1.0774 0.64967 1.1991 5.1956 3.6215 3.8438 1.523-1.2698 0.33864-4.8077 3.2188-3.8438 0.3062 1.5197 1.3769 5.3887 3.4375 3.5938 0.99256-1.4264 0.44111-4.0061 3.0729-3 2.1676-0.83475 7.8572 1.8526 7.3333-1.6736 2.241-0.77818 5.957-0.06407 8.741-0.561 7.6109-0.36566 16.757-2.9851 19.509-10.922 2.8303-8.4126 0.95438-17.547 1.5-26.278 1.5219-4.5543-2.4685-3.5963-5.5625-3.5347-3.6839-0.80374-5.4855 0.25862-4.4375 4.1493-0.3164 6.9448 0.69163 14.281-0.78125 20.976-2.6773 5.847-10.351 5.6198-15.875 5.75-4.7823 1.5665-2.6662-3.797-3.0938-6.625 5.4195 0.26134 10.099-4.6456 9.5625-10.062 4.6444 1.6375 1.6718-4.3421 6.3958-2.625 2.8984 0.86711 1.6302-5.4494 1.0104-6.125-4.89 1.9051-3.071-2.899-6.0174-2.9375-2.3089 0.50759-0.9827-3.029-2.5139-4.2812-1.6169-2.987-5.0058-5.0673-8.4375-5.125v-19.312c-4.7437-0.12272-8.9097 0.17606-13.406 0.125 0.00735-1.6695-2.0454-5.6258-3.625-2.9375-0.45275 1.5911-1.1221 4.3103-2.9062 2.5-0.06861-1.5931-2.0471-5.0177-3.5-2.5625-0.77822 1.643-0.46937 3.8941-3.066 3-1.1551-0.52947-1.3339-5.0702-3.7153-3.5625-1.3477 1.4757-0.4435 4.6006-3.375 3.5625-0.17236-1.5528-1.6855-5.383-3.5-3.1875-0.9131 1.6509-0.49324 4.2178-3.3125 3.1875 0.00735-1.6695-2.0454-5.6258-3.625-2.9375-0.69267 1.7601-0.58406 3.8052-3.1875 2.9375-0.11157-1.5673-1.6704-5.3782-3.4688-3.1875-0.96458 1.4313-0.32236 4.1582-2.9688 3.1875-0.11157-1.5673-1.6704-5.3782-3.4688-3.1875-0.88212 1.7591-0.59105 4.2212-3.4688 3.1875-0.17236-1.5528-1.6855-5.383-3.5-3.1875-0.9131 1.6509-0.49324 4.2178-3.3125 3.1875 0.00735-1.6695-2.0454-5.6258-3.625-2.9375-0.69267 1.7601-0.58406 3.8052-3.1875 2.9375-0.11157-1.5673-1.6704-5.3782-3.4688-3.1875-0.90719 1.6722-0.51192 4.2195-3.3438 3.1875-0.09181-1.481-1.7508-5.129-3.4375-3.0312-0.66695 1.5428-1.1354 4.4802-3.0938 2.5938-0.06583-1.5666-2.0988-4.7296-3.4688-2.4062-0.91848 1.605-0.15703-5.0788-0.40625-6.809 0.3822-5.343-4.0818-10.862-9.7847-9.6597-0.70995 0.39646-3.4814-0.77061-3.184 0.5625z" opacity=".1"/>
   <path d="m307.04-16.124c-2.1238 0.58449-8.808-0.23367-12.406 0.09375-3.3851 1.1504-10.211-2.4248-11.625 1.9688 2.1584 8.4605-2.31 10.294-10 8.9062-3.0549 0.69727-4.5812 0.02394-5.0625-2.8438-2.2975-5.2805-8.485-5.6438-13.531-5.1875-5.9676 0.33408-14.489-1.9566-17.781 4.6875-0.64545 2.9424-2.4 3.3327-5.3438 2.9062-6.5347 0.51116-8.9888 7.9991-7.7188 13.625-4.4995 1.7302-12.25 0.19469-18 0.66915-12.835 0.14037-25.898-0.50739-38.594 0.1121-4.2112 2.808-9.7564 8.2396-14.281 3.6875-3.1477-1.0172-7.4684-1.082-9.6562 1.8125-2.4283-0.95982-4.9583-3.3646-8.2188-2.3125-3.0492-0.51968-4.9878 4.1192-7.25 0.84375-3.4404-1.9193-8.2828-0.86217-10.781 1.3438-2.7572-2.7932-7.261-2.486-10.844-2.1562-7.0457 0.84179-17.185-0.83519-21.312 6.7188-5.8877 0.10186-9.4527 2.5265-16.469 1.5-5.775-0.58816-9.3566 4.4779-15.969 2.5938-4.9271 0.31057-9.5173-3.0146-14.656-1.4375-5.1713 1.5956-11.503 2.5046-15.188 6.6875 0.23737 8.1324-0.88333 16.826 0.4375 24.719 6.5922 5.5747 16.449 5.9681 24.688 4.9688 4.0474-1.3788 9.4074-0.8458 13.479-0.08833 3.7938 4.634 11.149 1.6017 16.958 2.4633 0.97182 3.1966 5.5519 0.92646 8.4375 3.375 6.7572 5.1855 15.887 3.4003 23.781 3.9062 2.7461-0.69363 6.3687-3.2226 8.4688-0.34375 3.6206 2.1691 8.512 0.96176 11.344-1.5 2.7848 3.5686 9.4094 3.6166 12.156 0.03125 2.3999 1.3061 5.2558 3.4822 8.5938 2.4375 3.3422-0.2186 5.7358-4.8848 9.1301-1.2928 4.6144 4.1476 9.8748 6.1918 16.089 5.0381l47.656-0.21406c-0.73909 6.3114 5.8967 10.914 11.812 9.5 0.35018 6.5248 7.5584 9.1649 13.188 8 6.416-0.49046 16.489 2.4317 19.688-5.3438 0.59453-4.6098 7.2485-1.0941 10.562-2.1875 7.1403-2.1759 2.8834 6.2263 4.5 10 3.9781 2.4532 10.03 0.00643 14.656 0.875 2.633 1.1168 9.6325-2.0594 9.0625 1.3438 5.4835 1.0531 12.648-0.09651 14.406-6.2188 1.598-4.9344 0.36087-10.281 0.75-15.375 2.2188-0.23871 3.3848 7.0163 6.7812 3.3438 1.2061-1.6674 1.0017-4.8506 1.9688-1.125 1.2854 3.7972 5.9308 1.5306 5.5938-1.875 0.82397 0.01926 2.3988 5.8841 5.3125 3.2188 1.4039-0.95608 1.402-5.5426 2.4688-2.0312 0.59487 3.5379 5.5597 3.1124 5.5625-0.40625 1.0777-3.0167 1.5195 4.501 4.625 2.9688 2.453-0.20009 2.1202-6.4375 3.5625-2.625 0.55105 3.5021 5.4527 3.2787 5.5938-0.28125 0.53149-2.8658 1.5036 4.9787 4.5938 2.7812 2.077-0.49482 1.8268-6.1759 3.0625-2.4375 0.59487 3.5379 5.5597 3.1124 5.5625-0.40625 1.0777-3.0167 1.5195 4.501 4.625 2.9688 2.3949-0.03217 2.0708-6.2072 3.2188-2.6562 0.46286 3.55 5.5501 3.2775 5.5625-0.28125 1.3779-3.4179 2.0975 5.2434 5.5938 2.6875 1.7606-0.53723 1.5324-5.7843 2.4375-2.4062 0.48468 3.6121 5.5574 3.1959 5.5625-0.3125 5.3862-0.11884 9.0393-1.3575 13.156-2.5508 9.6406 0.12594 22.219-2.2718 25.188-12.98 2.4755-9.7803 0.54618-20.152 1.1562-30.156-4.6094 1.0285-14.5-3.1742-12.188 4.6875-0.73984 7.3055 1.3818 15.29-1.2812 22.219-3.8648 4.6645-10.827 3.728-16.281 3.9688-0.87671-3.5697 0.31514-4.9714 3.5625-5.375 3.5984-1.5068 5.91-5.3373 6-9.125 3.4241-1.9925 9.4332-1.4002 7.9688-8.2812-0.96616-3.7005-5.7484-3.5849-7.9688-6.0312-0.9006-4.5978-4.8964-8.3819-9.5625-8.9062v-19.375c-4.479-0.40487-10.245 0.75812-13.812-0.46875-0.16182-3.201-4.8723-4.7277-5.625-1-0.76022 4.103-1.5997-4.3596-4.8125-2.125-1.9496 0.64627-1.9392 5.9777-3.4375 2.375-0.56202-3.3464-5.3678-3.1913-5.5 0.3125-0.89688 2.6483-1.7616-4.7571-4.8125-2.6875-1.9533 0.46933-1.8664 5.7785-3.0938 2.375-0.56202-3.3464-5.3678-3.1913-5.5 0.3125-0.96632 2.7232-2.3312-5.4041-5.5-2.375-1.5454 1.217-1.4634 5.2706-2.5 1.4375-1.3478-3.682-5.8195-1.2457-5.5 1.9688-1.1578-1.0206-3.1769-6.0371-5.8438-2.9688-0.99549 2.2166-1.6153 4.0236-2.625 0.6875-1.521-3.3776-5.6102-0.69184-5.3125 2.2812-0.91151-1.3417-3.1266-5.916-5.6562-2.9688-0.98171 2.0887-1.6088 4.1825-2.6562 0.84375-1.7619-3.6069-5.3044-0.18503-5.5312 2.125-0.45128-1.6426-1.5513-4.1557-3.7188-3.6562 1.0744-6.1435-1.0235-15.474-8.6562-15.656-1.857 0.7378-7.3345-1.685-6.5 1.6562z" opacity=".1"/>
   <path d="m305.91-17.155c-7.493 0.46512-15.426-0.87569-22.688 0.5625-3.9232 2.9791 2.2428 12.438-5.3438 10.312-3.3597-0.60311-8.4596 1.9088-9.1875-2.625-4.6438-8.5318-16.009-4.5395-23.812-5.3438-4.8273-0.57268-8.8484 3.172-10.219 7.5-6.8522-1.3698-13.479 4.8303-12.219 11.781-0.532 5.6739-11.216 1.1488-16 2.5516-13.303 0.26767-27.002-0.77391-40.063 0.2921-3.999 2.5834-8.904 7.7528-13.25 3.625-3.5033-1.5206-8.2287-0.62367-10.781 1.5-3.366-3.5388-9.8508-2.3618-12.969-0.15625-3.4356-3.2542-9.4073-2.1739-12.688-0.25-3.1495-2.1004-7.5323-2.2468-11.188-1.5625-7.2829 0.47291-16.978-0.57698-21.531 6.5938-6.0831-0.27056-8.9742 2.6508-15.938 1.5-6.0976-1.1817-8.2496 4.4814-15.094 2.5938-5.4474 0.26894-10.678-3.1053-16.281-1.2812-5.1884 1.8195-11.992 2.5773-15.344 7.3125 0.05326 8.3705-1.0066 17.384 0.4375 25.531 6.5337 6.1965 16.746 6.4126 25.25 5.7812 4.7417-1.2737 10.917-1.8833 15.125 0.8125 2.4816 3.2892 11.077 0.46463 15.906 1.4062-0.62846 4.9018 6.8161 0.13191 8.9375 4.0625 7.027 4.2651 15.675 2.8029 23.438 3.1875 2.5922-0.6397 5.789-2.9971 7.8125-0.375 3.5617 2.0725 8.8178 1.1385 11.562-1.0312 3.449 3.1998 9.6137 2.7474 12.844-0.125 3.3807 3.2131 9.7098 3.1866 12.938-0.21875 6.3388 0.21406 10.222 8.5486 17.344 6.1646 16.402 0.13697 33.651-0.57607 49.531 0.08542 0.11794 6.205 6.7504 9.9608 12.031 9.4688 1.2912 6.8944 9.0981 8.7153 15.094 7.7188 6.5774-0.17087 16.292 1.9195 19.594-5.75 1.2484-4.277 8.1695-0.52612 11.594-1.7812 3.4542 1.2028-1.766 10.091 3.875 10.875h21.281c0.68297 2.7196 6.4551 1.0848 9.4062 1.1562 8.0318-1.9384 8.8313-11.836 8-18.562-0.56061-3.8255 2.1902 3.6512 4.9375 1.2812 1.8804-1.5741 2.1305-2.1431 3.9375-0.09375 2.089 1.7142 4.2121-1.8023 4.9688-1.875 1.3372 3.1124 5.686 1.9386 6.6562-0.25 1.2289 3.3413 5.8082 2.2327 6.8125 0.0625 1.2363 2.9946 5.8269 2.736 6.75-0.40625 1.047 3.5933 5.7307 2.5152 6.9375 0.8125 1.4255 2.9478 5.5725 1.5806 6.5-0.46875 1.2289 3.3413 5.8082 2.2327 6.8125 0.0625 1.2417 3.2212 5.632 2.153 6.75 0.1875 1.4663 3.3346 6.0964 1.6688 6.7812-0.625 1.0007 3.1327 5.5205 3.3183 6.8125 0.625 1.6268 3.3709 6.5875 1.8885 6.9062-1.5625 5.9744 1.0208 8.9283-0.87795 12.781-2.0312 9.913 0.08017 22.622-2.7687 25.594-13.75 2.6806-10.262 0.58877-21.129 1.25-31.625-4.6565 1.4312-15.76-3.5116-14.457 3.8124-1.5351 4.0657-4.0294-1.5658-6.3244-2.7187-1.4158-3.8868-4.9273-6.9184-8.9688-7.75v-19.562c-4.5363-0.80383-11.156 1.5662-14.469-1.0938-0.89931-3.3188-5.5859-3.2574-6.8125-0.71875-1.5268-3.6632-6.2932-1.1553-6.8125 0.59375-1.0471-3.2571-5.6367-3.1224-6.8438-0.4375-1.3363-3.4165-5.7987-1.8652-6.7812 0.0625-1.3069-3.4416-5.7222-1.9495-6.8125-0.0625-1.2123-3.0661-5.4525-2.2546-6.5625-0.1875-1.4555-3.4139-5.8836-1.4105-6.7188 0.375-1.2538-3.386-5.8212-2.4041-6.875-0.0625-1.195-3.0624-5.591-2.7323-6.7188 0.0625-1.2878-3.5187-5.9716-2.2557-6.9375 0.03125-1.2204-3.4746-5.645-1.6979-6.6562-0.40625-4.141-2.0547-1.4089-6.926-3.3438-10.594-2.0224-6.6153-9.7776-7.8105-15.719-6.75-1.4742-0.63048-0.53564 1.1519-0.78125 1.75zm123.59 59.656c1.1905 2.164 0.30237 6.6816 0.1875 9.75-1.9147 5.8571-9.9728 4.8377-14.938 5.125-0.84393-3.9393 5.3368-2.7575 6.8125-6.1562 2.6327-1.9598 1.2943-7.7466 5.8125-6.0938 0.09736-2.2313-0.79309-3.0678 2.125-2.625z" opacity=".1"/>
   <path d="m304.82-18.249c-7.3282 0.55519-15.174-1.0671-22.219 0.71875-4.5804 2.6621 1.7997 12.354-5.8125 10.156-3.5544 0.32882-6.6689 0.70185-7.7812-3.0625-4.6907-7.4965-14.738-4.2793-22.062-4.9688-5.6642-0.89069-11.19 2.2429-13.094 7.5625-7.9397-1.2212-14.22 6.8349-12.5 14.375-18.208-0.09233-36.417-0.11382-54.625-0.25-4.0471 2.1633-8.7218 8.4474-13.125 4.1875-3.6732-1.7189-8.4642-0.386-11.438 0.875-3.7722-2.7882-9.3463-1.5922-12.906-0.03125-3.6573-2.5941-9.0269-1.7389-12.562-0.09375-6.0174-3.2227-12.845-0.58612-19.279-0.96887-5.1686 0.32295-11.01 1.6984-14.064 6.2814-6.3301-0.36132-9.2875 2.65-16.406 1.5-6.2742-0.90047-8.108 4.5235-15.375 2.5938-5.0644-0.64066-10.345-2.8742-15.656-1.1562-5.3569 1.9954-12.63 2.7108-15.688 8.0312 0.11504 8.6482-1.1439 17.959 0.5625 26.344 6.6844 6.7786 17.54 6.9528 26.469 6.3125 4.2912-1.2385 9.8188-1.6947 13.781 0.28125 1.6577 4.2902 11.084 0.81144 15.906 1.9375-0.60798 5.1079 7.2193-0.09932 9.4375 3.9062 7.2505 4.4471 16.218 2.9846 24.281 3.3438 2.8867-1.0278 5.6293-2.5 8 0 3.6164 1.4618 8.1515 0.69538 11.219-0.96875 3.6418 2.622 9.3961 2.1461 12.719-0.15625 3.863 2.731 9.9569 2.6971 13.469-0.625 5.6649 0.88602 9.3576 8.1738 15.875 6.1711 16.434 0.14347 33.556-0.5571 49.563 0.11011 0.56067 6.0147 6.9728 9.5319 12.156 9.5 1.9393 7.2767 10.352 8.5169 16.75 7.6562 6.8024 0.17388 16.565 1.4093 19.781-6.4375 2.2394-1.6166 13.084-3.3769 10.594 2.9062-1.5122 5.2764 3.4944 8.2845 8.1875 6.875 5.4586 0.60392 13.513-1.3885 16.844 1.3438 6.2894 0.83452 14.478 0.33174 17.219-6.5 1.9819-3.4605 0.99735-8.612 1.6875-11.469 2.9154 2.4264 5.3735-2.0986 7.8125 0.6875 3.0204 0.36894 4.4179-2.4875 6.9688-0.15625 2.6528 0.51792 4.0651-2.5728 6.125-0.25 2.8267 1.4476 4.6243-2.5521 6.7812 0 2.9457 1.4042 4.735-2.6247 6.9688 0 2.8584 1.1382 4.6863-2.1856 7.125 0.25 2.6528 0.51792 4.0651-2.5728 6.125-0.25 2.8267 1.4476 4.6243-2.5521 6.7812 0 2.6614 1.5653 4.5492-2.5578 6.625-0.03125 2.696 1.8371 4.7215-2.965 6.5312-0.25 2.6319 2.2401 4.9496-2.1375 7.0625 0.25 2.542 1.0441 5.3264-0.86215 6.0938-3.2812 5.3468 0.65452 9.0187-0.26713 12-2.0312 10.381 0.13183 23.509-3.0795 26.594-14.5 2.7725-10.743 0.58623-22.091 1.2812-33.062-5.064 1.1569-14.949-2.4308-16.687 1.9997 1.3474 5.8074-2.181 0.44345-4.5632-1.2185-1.6449-3.4741-4.7941-6.1776-8.5-7.2188v-19.781c-4.6991-0.6854-11.112 1.3535-14.781-0.96875-1.2858-3.0286-5.4884-3.5919-7.6562-1.5625-2.0088-2.6692-5.5961-0.20297-7.1562 0-1.757-2.0536-4.9457-1.1408-6.5938 0-1.8573-2.3964-5.1986-0.63666-6.8125 0-1.8313-2.3044-5.2233-0.77001-6.7812 0-1.6998-1.9163-4.7959-1.3401-6.4375 0-1.9284-2.5576-5.3869-0.38462-6.9688 0-1.8573-2.3964-5.1986-0.63666-6.8125 0-1.8313-2.3044-5.2233-0.77001-6.7812 0-1.9938-2.7155-5.4728-0.10161-7.0938-0.09375-1.9773-2.2548-4.9778 0.15948-6.5625-0.09375-2.2738-1.9947-0.08706-6.6452-2.125-9.4375-2.3596-6.7988-10.33-8.0902-16.594-7.0312-1.8175-0.18054-2.1781-0.18732-1.875 1.75zm124.16 61.844c-0.33402 4.1243 1.3714 11.004-4.5312 11.844-2.6952 0.56681-6.4828 1.3092-8.5938 0.4375 4.7565-0.92656 8.3337-5.0333 9.375-9.6562 4.1716 0.68821 2.6151-0.41869 3.75-2.625z" opacity=".1"/>
   <path d="m303.69-19.374c-7.1497 0.65363-14.944-1.2961-21.719 0.9375-5.0134 2.8957 1.1653 12.732-7.3125 9.9375-4.8106 1.497-4.8387-5.3608-8.9375-6.5625-7.3958-2.7922-15.815-1.1084-23.562-1.25-4.2024 0.42366-7.2419 3.7894-9.0312 7.3438-7.7402-0.77022-14.199 6.851-12.906 14.375-17.938-0.07071-35.875-0.15875-53.812-0.21875-4.0842 1.9647-8.2574 8.1505-12.656 4.1562-3.7153-1.5299-8.293-0.56279-11.562 0.65625-3.9041-2.2978-9.1904-1.4872-12.875 0-3.9208-2.4159-9.0827-1.2144-12.875-0.21875-6.6639-2.6515-13.778-0.38509-20.656-0.46875-4.8476 0.39944-9.9901 2.0614-13.031 6.0938-6.6324-0.48656-9.6286 2.663-16.938 1.5-6.3306-0.57168-7.7872 4.559-15.5 2.5938-9.7975-3.9185-20.97-0.34038-29.469 5.0625-4.2066 5.1986-0.87561 12.961-1.9375 19.156-0.43601 5.2777-0.85543 12.103 5.25 14.219 8.4737 4.0632 18.498 4.4463 27.469 2.5312 7.9998-2.2423 7.721 4.9315 15.281 3.0312 7.7972-1.7451 8.5991 3.5051 15.906 2.25 4.3374 2.236 9.2599 4.9281 14.529 4.7884 6.2658-0.24408 12.657 1.4332 18.534-1.3821 3.8706 3.5315 10.064 2.3356 14.188 0.96875 3.8817 2.2012 9.033 1.4902 12.719-0.15625 4.4454 2.6665 10.353 1.6269 14.375-0.96875 5.0953 3.6833 10.084 7.7742 16.781 6.1625 15.464 0.12614 31.539-0.51039 46.625 0.08747 1.0687 5.7928 7.1411 9.2091 12.281 9.5312 2.5336 7.2084 10.913 8.4863 17.562 7.6562 7.1594 0.26511 17.072 1.2212 20.625-6.75 3.628-1.969 11.415-1.8508 8.625 4.8125 0.72608 8.1597 10.877 4.5126 16.312 5.2812 6.793-0.77218 9.6462 2.3954 16.719 1.3438 9.0669 0.63024 14.216-9.4885 12.844-17.438 2.9511 0.55581 5.1493-1.5144 7.9062 0.15625 2.7025-0.65706 4.2678-1.5705 6.9375-0.15625 2.8036-1.3258 4.536-0.65188 7.4375 0 2.9592-2.4875 5.8793 1.5484 9.0312-0.8125 2.0093-0.27361 5.1652 1.9197 7.4062-0.15625 2.9358 2.9854 6.1174-1.7394 8.8438 0.96875 3.0281-0.03303 4.9281-1.8397 7.75 0 2.9308-1.3964 5.0188 0.00727 8.0938-0.21875 2.7881-2.264 6.1622 1.8364 9.125-0.6875 2.8655 1.944 7.069 0.5158 8.3438-2.6562 5.8452 0.80474 9.3242-0.55917 12.938-2.0938 10.732 0.06856 23.637-4.3729 26.312-16.062 2.318-11.035 0.47644-22.49 1.0625-33.688h-18.969c0.39219 5.2549-3.1688 1.0816-4.0938-1.3125-1.9714-3.7699-8.5068-3.598-6.6875-8.8125-1.1361-4.8951 2.3421-14.405-2-16.094-4.1085-0.9389-10.372 1.7545-13.344-1.0938-1.9728-3.6454-6.2724-2.1988-9.0312-2.1875-3.1223-1.8993-5.6714 2.0898-8.4062-0.5-2.9448 0.17058-4.8851 1.3498-7.6875 0-2.7887 1.269-4.5325 0.50617-7.4375 0-2.9741 2.3269-6.1973-1.6476-9.2812 1-3.1254-2.7884-6.3228 1.5235-9.1875-1-3.0346 0.16877-4.9251 1.5062-7.7812 0-2.629 0.86156-4.2865 0.98638-6.9062 0-2.7961 1.1806-4.5536 0.81919-7.4375 0.1875-3.2393 2.2049-3.0678-0.53958-3-3.25-0.30595-7.9204-8.0865-14.112-15.938-12.344-1.7491 0.63854-6.9466-1.577-5.8438 1.75zm124.09 66.719c0.3181 3.0854-0.11697 6.9679-4.0938 7.125-2.8196 0.82797-3.4008 0.49402-0.78125-1.4062 2.2571-1.4657 1.9355-6.219 4.875-5.7188z" opacity=".1"/>
  </g>
  <g transform="translate(-2.0789 -16.372)">
   <path d="m315.2981,186.12622h20.66391a.30481,.30481 0 0,1 .30481.30481v104.54931a.30481,.30481 0 0,1 -.30481.30481h-20.66391a.30481,.30481 0 0,1 -.30481-.30481v-104.54931a.30481,.30481 0 0,1 .30481-.30481" fill="url(#e)" stroke="url(#c)" stroke-width=".687"/>
   <path d="m343.86 184.36c3.8839 0 7 3.9696 7 8.9173v90.377c0 4.9477-3.1161 8.9571-7 8.9572h-4.8438v-108.25h4.8438z" fill="url(#e)" stroke="url(#c)" stroke-width=".687"/>
   <path d="m433.87 203.57h8.44v68.048h-8.44z" fill="url(#e)" stroke="url(#c)" stroke-width=".687"/>
   <path d="m350.84529,203.68683h82.04453a.21532,.21532 0 0,1 .21532.21532v66.92192a.21532,.21532 0 0,1 -.21532.21532h-82.04453a.21532,.21532 0 0,1 -.21532-.21532v-66.92192a.21532,.21532 0 0,1 .21532-.21532" fill="url(#q)" stroke="url(#p)" stroke-width=".66345"/>
   <path d="m198.22 210.69-8.625 5.7812h-44.188l-0.42151 47.926 44.015 0.10538 9.2188 6.1875 57.469-0.25v-5.9375h2.4688v-48.031h-2.4688v-5.5312l-57.469-0.25z" fill="url(#r)" stroke="#c6c49b" stroke-width=".6"/>
   <path d="m152.27 214.14h2.4641a4.3976 4.3976 0 0 1 4.3976 4.3976v43.976a4.3976 4.3976 0 0 1 -4.3976 4.3976h-2.4641a4.3976 4.3976 0 0 1 -4.3976 -4.3976v-43.976a4.3976 4.3976 0 0 1 4.3976 -4.3976" fill="url(#i)"/>
   <path d="m142.32 214.28h0.27572a4.2597 4.2597 0 0 1 4.2597 4.2597v42.597a4.2597 4.2597 0 0 1 -4.2597 4.2597h-0.27572a4.2597 4.2597 0 0 1 -4.2597 -4.2597v-42.597a4.2597 4.2597 0 0 1 4.2597 -4.2597" fill="url(#j)"/>
   <path d="m136.19 214.6v51.382c-6.3326 0.17705-15.078 0.88209-19.848-4.629l-0.14872-40.736c2.3598-6.6076 13.189-6.2222 19.997-6.0178z" fill="url(#k)"/>
   <path d="m138.66 213.84a2.5225 0.81635 0 0 1 2.5225 0.81635v50.976a2.5225 0.81635 0 0 1 -2.5225 0.81635 2.5225 0.81635 0 0 1 -2.5225 -0.81635v-50.976a2.5225 0.81635 0 0 1 2.5225 -0.81635" fill="#333"/>
   <path d="m111.14 220.9h5.036v40.353h-5.036z" fill="#333"/>
   <path d="m95.241 222.4h16.231v36.603h-16.231z" fill="url(#s)"/>
   <path d="m90.934 225.03 4.3332-2.6021 0.04544 36.52-4.4539-3.0777 0.07527-30.84z" fill="url(#t)"/>
   <path d="m78.048 225h12.941v30.963h-12.941z" fill="url(#u)"/>
   <path d="m66.154 224c5.6497-1.6592 11.93-0.1587 11.93 1.1796v30.746c0 1.3383-5.0716 1.5358-12.177 0.68516-7.2271-0.86526-11.682-3.7439-11.682-4.73v-22.656c0-0.98616 6.2477-3.5558 11.93-5.2245z" fill="url(#l)"/>
   <path d="m274.38 189.51h16.197c3.8839 0 7.0106 3.1267 7.0106 7.0106v84.369c0 3.8839-3.1267 7.0106-7.0106 7.0106h-16.197c-3.8839 0-7.0106-3.1267-7.0106-7.0106v-84.369c0-3.8839 3.1267-7.0106 7.0106-7.0106z" fill="url(#v)" stroke="url(#c)" stroke-width=".687"/>
   <path d="m262.53 196.53c-3.8839 0-7 3.1161-7 7v69.375c0 3.8839 3.1161 7.0312 7 7.0312h4.8438v-83.406h-4.8438z" fill="url(#e)" stroke="url(#c)" stroke-width=".687"/>
   <path d="m297.58766,197.00473h17.16387a.24174,.24174 0 0,1 .24174.24174v82.91842a.24174,.24174 0 0,1 -.24174.24174h-17.16387a.24174,.24174 0 0,1 -.24174-.24174v-82.91842a.24174,.24174 0 0,1 .24174-.24174" fill="url(#e)" stroke="url(#c)" stroke-width=".687"/>
   <path d="m336.57531,202.56639h2.02244a.23116,.23116 0 0,1 .23116.23116v79.28907a.23116,.23116 0 0,1 -.23116.23116h-2.02244a.23116,.23116 0 0,1 -.23116-.23116v-79.28907a.23116,.23116 0 0,1 .23116-.23116" fill="#333"/>
   <path transform="matrix(.99673 -.080781 .059453 .99823 0 0)" d="m340.56 227.87a2.385 11.843 0 0 1 2.385 11.843v51.841a2.385 11.843 0 0 1 -2.385 11.843 2.385 11.843 0 0 1 -2.385 -11.843v-51.841a2.385 11.843 0 0 1 2.385 -11.843" fill="url(#x)" stroke="url(#w)" stroke-width=".26482"/>
   <path transform="matrix(.99673 -.080781 .059453 .99823 0 0)" d="m346.98 228.39a2.385 11.843 0 0 1 2.385 11.843v51.841a2.385 11.843 0 0 1 -2.385 11.843 2.385 11.843 0 0 1 -2.385 -11.843v-51.841a2.385 11.843 0 0 1 2.385 -11.843" fill="url(#z)" stroke="url(#y)" stroke-width=".26482"/>
   <path transform="matrix(.99673 -.080781 .059453 .99823 0 0)" d="m353.78 228.76a2.385 11.843 0 0 1 2.385 11.843v51.841a2.385 11.843 0 0 1 -2.385 11.843 2.385 11.843 0 0 1 -2.385 -11.843v-51.841a2.385 11.843 0 0 1 2.385 -11.843" fill="url(#ab)" stroke="url(#aa)" stroke-width=".26482"/>
   <path transform="matrix(.99673 -.080781 .059453 .99823 0 0)" d="m360.56 229.31a2.385 11.843 0 0 1 2.385 11.843v51.841a2.385 11.843 0 0 1 -2.385 11.843 2.385 11.843 0 0 1 -2.385 -11.843v-51.841a2.385 11.843 0 0 1 2.385 -11.843" fill="url(#ad)" stroke="url(#ac)" stroke-width=".26482"/>
   <path transform="matrix(.99673 -.080781 .059453 .99823 0 0)" d="m367.35 229.85a2.385 11.843 0 0 1 2.385 11.843v51.841a2.385 11.843 0 0 1 -2.385 11.843 2.385 11.843 0 0 1 -2.385 -11.843v-51.841a2.385 11.843 0 0 1 2.385 -11.843" fill="url(#af)" stroke="url(#ae)" stroke-width=".26482"/>
   <path transform="matrix(.99673 -.080781 .059453 .99823 0 0)" d="m374.31 230.42a2.385 11.843 0 0 1 2.385 11.843v51.841a2.385 11.843 0 0 1 -2.385 11.843 2.385 11.843 0 0 1 -2.385 -11.843v-51.841a2.385 11.843 0 0 1 2.385 -11.843" fill="url(#ah)" stroke="url(#ag)" stroke-width=".26482"/>
   <path transform="matrix(.99673 -.080781 .059453 .99823 0 0)" d="m380.74 230.94a2.385 11.843 0 0 1 2.385 11.843v51.841a2.385 11.843 0 0 1 -2.385 11.843 2.385 11.843 0 0 1 -2.385 -11.843v-51.841a2.385 11.843 0 0 1 2.385 -11.843" fill="url(#aj)" stroke="url(#ai)" stroke-width=".26482"/>
   <path transform="matrix(.99673 -.080781 .059453 .99823 0 0)" d="m387.53 231.49a2.385 11.843 0 0 1 2.385 11.843v51.841a2.385 11.843 0 0 1 -2.385 11.843 2.385 11.843 0 0 1 -2.385 -11.843v-51.841a2.385 11.843 0 0 1 2.385 -11.843" fill="url(#al)" stroke="url(#ak)" stroke-width=".26482"/>
   <path transform="matrix(.99673 -.080781 .059453 .99823 0 0)" d="m394.31 232.04a2.385 11.843 0 0 1 2.385 11.843v51.841a2.385 11.843 0 0 1 -2.385 11.843 2.385 11.843 0 0 1 -2.385 -11.843v-51.841a2.385 11.843 0 0 1 2.385 -11.843" fill="url(#an)" stroke="url(#am)" stroke-width=".26482"/>
   <path transform="matrix(.99673 -.080781 .059453 .99823 0 0)" d="m400.92 232.57a2.385 11.843 0 0 1 2.385 11.843v51.841a2.385 11.843 0 0 1 -2.385 11.843 2.385 11.843 0 0 1 -2.385 -11.843v-51.841a2.385 11.843 0 0 1 2.385 -11.843" fill="url(#ap)" stroke="url(#ao)" stroke-width=".26482"/>
   <path transform="matrix(.99673 -.080781 .059453 .99823 0 0)" d="m408.06 233.15a2.385 11.843 0 0 1 2.385 11.843v51.841a2.385 11.843 0 0 1 -2.385 11.843 2.385 11.843 0 0 1 -2.385 -11.843v-51.841a2.385 11.843 0 0 1 2.385 -11.843" fill="url(#ar)" stroke="url(#aq)" stroke-width=".26482"/>
   <path transform="matrix(.99673 -.080781 .059453 .99823 0 0)" d="m414.49 233.67a2.385 11.843 0 0 1 2.385 11.843v51.841a2.385 11.843 0 0 1 -2.385 11.843 2.385 11.843 0 0 1 -2.385 -11.843v-51.841a2.385 11.843 0 0 1 2.385 -11.843" fill="url(#at)" stroke="url(#as)" stroke-width=".26482"/>
   <path d="m451.87 230.39v14.976c-1.409 5.8414-4.8996 7.2716-8.9425 7.5314v-30.028c3.1379 0.04626 7.618 2.1473 8.9425 7.5201z" fill="url(#m)"/>
   <path d="m452.02 232.27h2.9012v10.55h-2.9012z" fill="url(#au)"/>
   <path d="m455 235.2h4.8292v5.0048h-4.8292z" fill="url(#av)"/>
   <path d="m442.98 260.69v8.9212c18.377 0.22065 28.64-2.9555 29.071-19.073v-20.765h-8.9212s0.15381 19.227-0.15382 20.15c0.70765 11.721-12.767 10.612-19.996 10.767z" fill="url(#ax)" stroke="url(#aw)" stroke-width=".687"/>
   <path d="m281.52 189.58h5.9901c5.5434 0 10.006 3.1225 10.006 7.0011v84.255c0 3.8786-4.4627 7.0011-10.006 7.0011h-5.9901c-0.84288-33.804-0.86573-77.465 0-98.257z" fill="#4d4d4d" fill-opacity=".57203"/>
   <path d="m273.8 213.61h16.583a4.7379 24.212 0 0 1 4.7379 24.212 4.7379 24.212 0 0 1 -4.7379 24.212h-16.583a4.7379 24.212 0 0 1 -4.7379 -24.212 4.7379 24.212 0 0 1 4.7379 -24.212" fill="url(#az)" stroke="url(#ay)" stroke-width=".7"/>
   <path d="m274.07 212.72c-2.6248 0-4.75-8.9632-4.75-20.097 0-0.31763 0.02785-0.6132 0.03125-0.92714 0.66393-1.3976 2.1295-2.4427 4.1496-2.5916 4.2014-0.30959 13.028-0.17543 17.968 0.03302 1.8917 0.07982 4.0889 1.7556 3.8823 2.5585 0.0034 0.31394 0.03125 0.60951 0.03125 0.92714 0 11.134-2.094 20.097-4.7188 20.097h-16.594z" fill="url(#bb)" stroke="url(#ba)" stroke-width=".7"/>
   <path d="m273.83 263.59c-2.6248 0-4.75 9.1692-4.75 20.559 0 0.32494 0.02785 0.6273 0.03125 0.94845 0.66393 1.4297 2.1295 2.4988 4.1496 2.6511 4.2014 0.31671 13.028 0.17947 17.968-0.03377 1.8917-0.08166 4.0889-1.796 3.8823-2.6173 0.0034-0.32115 0.03125-0.62351 0.03125-0.94845 0-11.39-2.094-20.559-4.7188-20.559h-16.594z" fill="url(#bd)" stroke="url(#bc)" stroke-width=".7"/>
   <path d="m165.13 214.14h2.4641a4.3976 4.3976 0 0 1 4.3976 4.3976v43.976a4.3976 4.3976 0 0 1 -4.3976 4.3976h-2.4641a4.3976 4.3976 0 0 1 -4.3976 -4.3976v-43.976a4.3976 4.3976 0 0 1 4.3976 -4.3976" fill="url(#n)"/>
   <path d="m178.1 214.14h2.4641a4.3976 4.3976 0 0 1 4.3976 4.3976v43.976a4.3976 4.3976 0 0 1 -4.3976 4.3976h-2.4641a4.3976 4.3976 0 0 1 -4.3976 -4.3976v-43.976a4.3976 4.3976 0 0 1 4.3976 -4.3976" fill="url(#o)"/>
   <path d="m262.53 196.53c-3.8839 0-7 3.1161-7 7v69.375c0 3.8839 3.1161 7.0312 7 7.0312h4.8438v-83.406h-4.8438z" fill="url(#e)" stroke="url(#c)" stroke-width=".687"/>
  </g>
 </g>
</svg>
